<?xml version="1.0" standalone="no"?>
<!DOCTYPE svg PUBLIC "-//W3C//DTD SVG 20010904//EN"
 "http://www.w3.org/TR/2001/REC-SVG-20010904/DTD/svg10.dtd">
<svg version="1.0" xmlns="http://www.w3.org/2000/svg"
 width="1551.000000pt" height="1551.000000pt" viewBox="0 0 1551.000000 1551.000000"
 preserveAspectRatio="xMidYMid meet">
<metadata>
Created by potrace 1.14, written by Peter Selinger 2001-2017
</metadata>
<g transform="translate(0.000000,1551.000000) scale(0.100000,-0.100000)"
fill="#000000" stroke="none">
<path d="M9010 15473 c-14 -20 -30 -41 -35 -47 -6 -6 -64 -80 -129 -163 -65
-84 -121 -153 -125 -153 -6 0 -108 21 -176 36 -16 3 -102 7 -190 9 -236 4
-391 -27 -585 -118 l-75 -35 -50 41 c-27 23 -52 44 -55 47 -3 3 -52 43 -110
90 -58 47 -114 92 -125 102 -11 9 -54 44 -95 78 -41 34 -85 70 -97 81 -13 10
-23 17 -23 14 0 -4 296 -452 351 -531 l29 -42 -98 -89 c-53 -50 -134 -128
-178 -174 -71 -73 -106 -113 -183 -204 -279 -335 -519 -801 -626 -1218 -23
-89 -31 -107 -44 -102 -9 4 -23 8 -31 10 -39 8 -417 112 -458 126 -19 6 -35 9
-37 7 -1 -1 96 -79 217 -172 l219 -169 -6 -101 c-4 -55 -8 -117 -10 -136 -2
-19 -6 -80 -10 -135 -4 -55 -8 -116 -10 -135 -2 -19 -7 -81 -10 -138 -4 -56
-8 -121 -10 -145 -2 -23 -7 -78 -10 -122 -3 -44 -8 -107 -10 -140 -3 -33 -7
-96 -10 -140 -3 -44 -8 -102 -10 -130 -3 -27 -7 -94 -11 -148 -3 -54 -7 -106
-9 -115 -2 -9 -4 -22 -4 -28 -1 -6 -26 -19 -56 -29 -105 -33 -275 -165 -346
-269 -13 -20 -27 -36 -31 -36 -10 0 -37 19 -343 241 -456 330 -699 505 -715
514 -8 4 6 -14 31 -41 25 -27 66 -71 91 -99 25 -27 58 -63 73 -80 15 -16 64
-70 108 -119 45 -49 89 -96 97 -106 25 -29 163 -181 190 -209 14 -14 65 -71
115 -126 49 -55 92 -102 95 -105 3 -3 25 -27 49 -52 l44 -47 -48 -53 c-57 -63
-99 -127 -149 -225 -35 -70 -102 -254 -113 -311 -8 -42 -11 -57 -13 -57 -1 0
-3 -9 -4 -20 -2 -11 -10 -54 -19 -95 -15 -74 -21 -121 -33 -250 -4 -36 -8 -76
-9 -90 -2 -14 -3 -43 -4 -65 -1 -36 -7 -44 -61 -88 -99 -80 -130 -111 -122
-122 4 -6 33 -30 65 -54 31 -24 57 -51 58 -60 16 -305 91 -596 223 -856 33
-66 64 -121 68 -123 4 -2 8 -8 8 -13 0 -37 209 -308 332 -431 l46 -46 -111
-93 c-62 -52 -114 -96 -117 -99 -3 -3 -56 -48 -117 -99 -62 -52 -113 -97 -113
-100 0 -3 24 -15 54 -27 l54 -21 242 103 c134 57 247 104 252 104 5 0 30 -46
57 -102 27 -57 72 -152 101 -213 29 -60 67 -141 85 -180 35 -74 99 -211 159
-337 41 -86 40 -84 24 -85 -60 -3 -218 -15 -238 -18 -14 -2 -65 -6 -115 -10
-80 -5 -133 -13 -215 -31 -14 -3 -36 -7 -50 -10 -13 -3 -56 -12 -95 -21 -38
-8 -90 -19 -114 -24 -23 -5 -59 -13 -80 -19 -20 -5 -54 -12 -76 -16 -22 -3
-43 -8 -46 -10 -3 -2 -19 -5 -35 -8 -17 -3 -167 -35 -334 -72 -168 -36 -316
-68 -330 -70 -14 -3 -33 -7 -42 -10 -19 -6 -41 -10 -123 -24 -102 -18 -319
-78 -402 -110 -285 -113 -504 -303 -624 -542 -46 -91 -95 -236 -105 -306 -3
-26 -8 -50 -10 -53 -10 -16 -23 -298 -16 -334 2 -12 18 -29 35 -38 18 -9 50
-27 72 -40 22 -14 123 -73 225 -132 102 -59 196 -115 210 -123 14 -9 27 -17
30 -17 3 0 28 -14 55 -31 28 -18 69 -42 92 -55 115 -66 260 -151 275 -162 9
-8 17 -22 16 -33 0 -10 2 -48 6 -84 6 -61 11 -110 21 -220 2 -25 7 -74 10
-110 3 -36 8 -90 11 -120 3 -30 7 -66 9 -80 4 -23 19 -149 31 -250 3 -25 7
-56 9 -70 3 -14 7 -43 10 -65 3 -22 7 -53 10 -70 3 -16 7 -50 10 -75 3 -25 8
-56 10 -70 6 -35 23 -147 30 -195 4 -22 8 -51 11 -65 2 -14 9 -54 14 -90 13
-86 16 -104 45 -245 13 -66 27 -136 30 -155 3 -19 10 -53 15 -75 8 -37 33
-164 44 -226 19 -113 98 -343 155 -458 143 -282 324 -477 691 -745 94 -69 316
-216 325 -216 2 0 29 -16 59 -34 161 -104 589 -297 796 -361 338 -103 623
-162 915 -189 28 -3 86 -8 130 -13 44 -4 199 -7 345 -7 259 1 330 7 536 48 12
2 37 7 55 10 19 3 90 16 159 30 69 14 136 27 150 30 90 17 280 63 425 102 94
25 177 47 185 49 60 13 501 156 555 180 17 7 43 17 59 21 16 4 41 13 55 20 14
8 30 14 35 14 12 0 350 136 399 161 21 10 44 19 52 19 8 0 15 5 15 10 0 6 5
10 11 10 13 0 120 47 308 136 73 35 137 64 141 64 23 0 33 30 75 225 2 11 6
29 9 40 8 38 75 370 81 401 14 88 45 274 50 309 3 22 7 51 10 65 2 14 9 59 15
100 6 41 14 86 16 100 2 14 7 45 10 70 3 25 7 56 9 70 2 14 7 48 10 75 3 28 8
64 10 80 2 17 6 55 10 85 5 51 10 97 20 190 2 19 7 69 10 110 3 41 8 95 10
120 6 56 16 217 31 460 10 184 14 318 15 635 l2 320 78 53 c96 66 219 186 282
276 64 92 130 232 163 346 35 121 43 333 18 445 -31 133 -92 257 -181 363 -47
55 -204 214 -269 272 -117 104 -343 267 -444 321 -25 13 -47 26 -50 29 -6 6
-193 98 -252 124 -174 77 -506 169 -693 191 -32 4 -68 9 -80 11 -44 8 -247 18
-372 18 -128 -1 -131 0 -128 20 2 12 6 38 9 58 4 28 63 165 93 217 1 2 42 -6
90 -17 48 -11 89 -19 90 -19 1 1 -14 35 -33 76 -19 40 -34 77 -34 82 0 4 42
59 93 121 361 438 633 878 852 1378 46 106 125 308 125 320 0 11 13 20 37 25
16 4 341 99 366 108 6 2 -39 34 -101 71 -96 58 -112 71 -113 94 -1 15 -3 38
-5 52 -6 47 -6 275 0 350 3 41 8 118 11 170 2 52 8 142 11 200 6 97 9 157 13
236 1 30 2 30 77 43 195 33 353 128 449 271 16 25 33 47 36 50 3 3 18 23 32
45 15 22 47 69 72 104 25 35 44 65 42 67 -3 3 -549 -139 -676 -175 -19 -6 -37
-8 -41 -6 -4 2 -8 33 -9 69 -1 35 -4 75 -6 88 -2 12 -9 58 -15 101 -17 113
-18 122 -45 227 -53 213 -160 455 -284 640 -66 100 -78 112 -243 243 -95 77
-207 158 -248 180 l-74 42 -22 90 c-12 50 -22 91 -23 93 -2 4 -3 10 -14 62 -3
14 -38 153 -76 310 -77 308 -80 322 -80 330 0 3 -4 17 -9 31 -6 14 -13 43 -16
63 -3 21 -10 45 -15 54 -5 9 -9 22 -10 27 0 6 -8 44 -17 85 -9 41 -16 77 -16
80 0 3 -4 12 -9 21 -6 11 0 45 17 100 14 46 30 98 34 114 5 17 29 95 55 174
25 79 44 146 42 148 -2 2 -55 -49 -118 -112 -63 -64 -122 -120 -131 -125 -17
-10 -37 16 -270 358 -24 35 -59 85 -78 112 -19 27 -64 92 -100 145 -68 101
-173 253 -187 271 -4 5 -12 18 -18 27 -5 9 -43 63 -82 121 l-73 105 -2 240 -3
240 -25 -36z"/>
</g>
</svg>
